<?xml version="1.0" encoding="UTF-8" standalone="no"?>
<!-- Generator: Adobe Illustrator 16.0.0, SVG Export Plug-In . SVG Version: 6.00 Build 0)  -->

<svg
   xmlns:dc="http://purl.org/dc/elements/1.1/"
   xmlns:cc="http://creativecommons.org/ns#"
   xmlns:rdf="http://www.w3.org/1999/02/22-rdf-syntax-ns#"
   xmlns:svg="http://www.w3.org/2000/svg"
   xmlns="http://www.w3.org/2000/svg"
   xmlns:xlink="http://www.w3.org/1999/xlink"
   xmlns:sodipodi="http://sodipodi.sourceforge.net/DTD/sodipodi-0.dtd"
   xmlns:inkscape="http://www.inkscape.org/namespaces/inkscape"
   version="1.1"
   id="Capa_1"
   x="0px"
   y="0px"
   width="466.37399"
   height="39.848999"
   viewBox="0 0 466.37399 39.848999"
   enable-background="new 0 0 1080 1080"
   xml:space="preserve"
   inkscape:version="0.91 r13725"
   sodipodi:docname="spmradio2.svg"><metadata
     id="metadata203"><rdf:RDF><cc:Work
         rdf:about=""><dc:format>image/svg+xml</dc:format><dc:type
           rdf:resource="http://purl.org/dc/dcmitype/StillImage" /><dc:title></dc:title></cc:Work></rdf:RDF></metadata><defs
     id="defs201" /><sodipodi:namedview
     pagecolor="#ffffff"
     bordercolor="#666666"
     borderopacity="1"
     objecttolerance="10"
     gridtolerance="10"
     guidetolerance="10"
     inkscape:pageopacity="0"
     inkscape:pageshadow="2"
     inkscape:window-width="1920"
     inkscape:window-height="1030"
     id="namedview199"
     showgrid="false"
     fit-margin-top="0"
     fit-margin-left="0"
     fit-margin-right="0"
     fit-margin-bottom="0"
     inkscape:zoom="2.8324907"
     inkscape:cx="233.187"
     inkscape:cy="19.9245"
     inkscape:window-x="0"
     inkscape:window-y="0"
     inkscape:window-maximized="1"
     inkscape:current-layer="Capa_1" /><rect
     x="-286"
     y="-138.032"
     width="1119"
     height="517.474"
     id="rect3" /><rect
     x="1"
     y="517"
     width="462.37399"
     height="35.848999"
     id="rect5"
     style="fill:#1d1d1b" /><g
     id="g7"
     transform="translate(-269,-111.151)"><defs
       id="defs9"><rect
         id="SVGID_1_"
         x="269"
         y="219.252"
         width="178.748"
         height="178.748" /></defs><clipPath
       id="SVGID_2_"><use
         xlink:href="#SVGID_1_"
         overflow="visible"
         id="use13"
         style="overflow:visible"
         x="0"
         y="0"
         width="100%"
         height="100%" /></clipPath><path
       clip-path="url(#SVGID_2_)"
       d="m 422.146,385.091 7.1,0 0,-16.846 5.636,0 0,-5.418 -18.341,0 0,5.418 5.605,0 0,16.846 z m -15.663,0.405 c 5.978,0 9.217,-3.425 9.217,-7.566 0,-4.951 -3.145,-6.384 -8.719,-6.976 -2.46,-0.312 -3.114,-0.81 -3.114,-1.868 0,-0.966 0.747,-1.62 2.18,-1.62 1.526,0 2.304,0.779 2.46,2.149 l 6.539,0 c -0.374,-4.858 -3.456,-7.1 -8.968,-7.1 -5.543,0 -8.906,2.989 -8.906,7.1 0,4.577 2.18,6.446 8.595,7.162 2.366,0.342 3.176,0.716 3.176,1.898 0,1.091 -0.81,1.839 -2.46,1.839 -2.305,0 -2.99,-1.153 -3.114,-2.555 l -6.695,0 c 0.157,5.016 3.519,7.537 9.809,7.537 m -24.413,-8.906 2.242,-8.064 2.18,8.064 -4.422,0 z m -8.875,8.501 6.571,0 1.027,-3.706 6.975,0 1.059,3.706 7.473,0 -6.975,-22.264 -9.123,0 -7.007,22.264 z m -10.898,0.405 c 5.885,0 10.182,-3.083 10.556,-8.937 l -7.037,0 c -0.25,2.241 -1.682,3.27 -3.675,3.27 -2.74,0 -4.235,-2.056 -4.235,-5.761 l 0,-0.249 c 0,-3.769 1.557,-5.761 4.111,-5.761 1.961,0 3.051,1.151 3.269,3.207 l 7.287,0 c -0.53,-6.041 -4.578,-8.781 -10.588,-8.781 -6.57,0 -11.521,4.483 -11.521,11.366 l 0,0.249 c 0,6.819 3.8,11.397 11.833,11.397 m -26.997,-5.823 0,-11.428 1.152,0 c 3.425,0 4.951,1.494 4.951,5.574 l 0,0.249 c 0,3.892 -1.464,5.604 -4.92,5.604 l -1.183,0 z m -7.069,5.418 8.501,0 c 7.847,0 12.02,-4.079 12.02,-11.179 l 0,-0.218 c 0,-7.068 -4.048,-10.867 -12.02,-10.867 l -8.501,0 0,22.264 z m -14.759,-5.138 c -2.802,0 -4.577,-2.086 -4.577,-5.885 l 0,-0.249 c 0,-3.799 1.775,-5.823 4.515,-5.823 2.803,0 4.609,2.055 4.609,5.823 l 0,0.249 c 0,3.705 -1.775,5.885 -4.547,5.885 m -0.186,5.543 c 7.317,0 12.081,-4.64 12.081,-11.584 l 0,-0.249 c 0,-7.037 -5.106,-11.179 -11.957,-11.179 -6.664,0 -11.895,4.483 -11.895,11.366 l 0,0.249 c 0,6.757 4.484,11.397 11.771,11.397 m -24.383,-12.393 0,-5.014 1.495,0 c 1.837,0 2.803,0.686 2.803,2.398 l 0,0.124 c 0,1.65 -0.966,2.491 -2.834,2.491 l -1.464,0 z m -7.036,11.988 7.037,0 0,-7.255 2.149,0 c 5.761,0 8.844,-2.616 8.844,-7.256 l 0,-0.124 c 0,-4.765 -2.741,-7.629 -9.155,-7.629 l -8.875,0 0,22.264 z"
       id="path15"
       inkscape:connector-curvature="0"
       style="fill:#ff0000" /></g><path
     d="m 34.245,147.757 3.456,0 0,3.454 -3.456,0 0,-3.454 z m 0,-5.349 3.456,0 0,3.456 -3.456,0 0,-3.456 z m 0,-21.378 3.456,0 0,3.456 -3.456,0 0,-3.456 z m -5.347,32.07 3.456,0 0,3.465 -3.456,0 0,-3.465 z m 0,-16.038 3.456,0 0,3.468 -3.456,0 0,-3.468 z m 0,-16.032 3.456,0 0,3.456 -3.456,0 0,-3.456 z m -5.345,32.07 3.459,0 0,3.465 -3.459,0 0,-3.465 z m 0,-16.038 3.459,0 0,3.468 -3.459,0 0,-3.468 z m 0,-16.032 3.459,0 0,3.456 -3.459,0 0,-3.456 z m -5.347,32.07 3.468,0 0,3.465 -3.468,0 0,-3.465 z m 0,-16.038 3.468,0 0,3.468 -3.468,0 0,-3.468 z m 0,-16.032 3.468,0 0,3.456 -3.468,0 0,-3.456 z m -5.34,32.07 3.454,0 0,3.465 -3.454,0 0,-3.465 z m 0,-21.378 3.454,0 0,3.453 -3.454,0 0,-3.453 z m 0,-5.352 3.454,0 0,3.462 -3.454,0 0,-3.462 z"
     id="path17"
     inkscape:connector-curvature="0"
     style="fill:#ffffff" /><path
     d="m 68.959,131.722 3.462,0 0,3.453 -3.462,0 0,-3.453 z m 0,-5.352 3.462,0 0,3.462 -3.462,0 0,-3.462 z m -5.343,10.692 3.46,0 0,3.468 -3.46,0 0,-3.468 z m 0,-16.032 3.46,0 0,3.456 -3.46,0 0,-3.456 z m -5.346,16.032 3.462,0 0,3.468 -3.462,0 0,-3.468 z m 0,-16.032 3.462,0 0,3.456 -3.462,0 0,-3.456 z m -5.346,16.032 3.456,0 0,3.468 -3.456,0 0,-3.468 z m 0,-16.032 3.456,0 0,3.456 -3.456,0 0,-3.456 z m -5.346,32.07 3.462,0 0,3.465 -3.462,0 0,-3.465 z m 0,-5.343 3.462,0 0,3.454 -3.462,0 0,-3.454 z m 0,-5.349 3.462,0 0,3.456 -3.462,0 0,-3.456 z m 0,-5.346 3.462,0 0,3.468 -3.462,0 0,-3.468 z m 0,-5.34 3.462,0 0,3.453 -3.462,0 0,-3.453 z m 0,-5.352 3.462,0 0,3.462 -3.462,0 0,-3.462 z m 0,-5.34 3.462,0 0,3.456 -3.462,0 0,-3.456 z"
     id="path19"
     inkscape:connector-curvature="0"
     style="fill:#ffffff" /><path
     d="m 103.679,153.1 3.462,0 0,3.465 -3.462,0 0,-3.465 z m 0,-5.343 3.462,0 0,3.454 -3.462,0 0,-3.454 z m 0,-5.349 3.462,0 0,3.456 -3.462,0 0,-3.456 z m 0,-5.346 3.462,0 0,3.468 -3.462,0 0,-3.468 z m 0,-5.34 3.462,0 0,3.453 -3.462,0 0,-3.453 z m 0,-5.352 3.462,0 0,3.462 -3.462,0 0,-3.462 z m -5.347,16.038 3.457,0 0,3.456 -3.457,0 0,-3.456 z m 0,-21.378 3.457,0 0,3.456 -3.457,0 0,-3.456 z m -5.351,21.378 3.46,0 0,3.456 -3.46,0 0,-3.456 z m 0,-21.378 3.46,0 0,3.456 -3.46,0 0,-3.456 z m -5.343,21.378 3.462,0 0,3.456 -3.462,0 0,-3.456 z m 0,-21.378 3.462,0 0,3.456 -3.462,0 0,-3.456 z m -5.34,32.07 3.45,0 0,3.465 -3.45,0 0,-3.465 z m 0,-5.343 3.45,0 0,3.454 -3.45,0 0,-3.454 z m 0,-5.349 3.45,0 0,3.456 -3.45,0 0,-3.456 z m 0,-5.346 3.45,0 0,3.468 -3.45,0 0,-3.468 z m 0,-5.34 3.45,0 0,3.453 -3.45,0 0,-3.453 z m 0,-5.352 3.45,0 0,3.462 -3.45,0 0,-3.462 z"
     id="path21"
     inkscape:connector-curvature="0"
     style="fill:#ffffff" /><path
     d="m 127.713,153.1 3.451,0 0,3.465 -3.451,0 0,-3.465 z m 0,-32.07 3.451,0 0,3.456 -3.451,0 0,-3.456 z m -5.352,32.07 3.462,0 0,3.465 -3.462,0 0,-3.465 z m 0,-5.343 3.462,0 0,3.454 -3.462,0 0,-3.454 z m 0,-5.349 3.462,0 0,3.456 -3.462,0 0,-3.456 z m 0,-5.346 3.462,0 0,3.468 -3.462,0 0,-3.468 z m 0,-5.34 3.462,0 0,3.453 -3.462,0 0,-3.453 z m 0,-5.352 3.462,0 0,3.462 -3.462,0 0,-3.462 z m 0,-5.34 3.462,0 0,3.456 -3.462,0 0,-3.456 z m -5.343,32.07 3.462,0 0,3.465 -3.462,0 0,-3.465 z m 0,-32.07 3.462,0 0,3.456 -3.462,0 0,-3.456 z"
     id="path23"
     inkscape:connector-curvature="0"
     style="fill:#ffffff" /><path
     d="m 162.428,153.1 3.45,0 0,3.465 -3.45,0 0,-3.465 z m 0,-5.343 3.45,0 0,3.454 -3.45,0 0,-3.454 z m 0,-5.349 3.45,0 0,3.456 -3.45,0 0,-3.456 z m 0,-5.346 3.45,0 0,3.468 -3.45,0 0,-3.468 z m 0,-5.34 3.45,0 0,3.453 -3.45,0 0,-3.453 z m 0,-5.352 3.45,0 0,3.462 -3.45,0 0,-3.462 z m 0,-5.34 3.45,0 0,3.456 -3.45,0 0,-3.456 z m -5.346,21.378 3.456,0 0,3.456 -3.456,0 0,-3.456 z m -5.349,-5.346 3.456,0 0,3.468 -3.456,0 0,-3.468 z m -5.349,-5.34 3.466,0 0,3.453 -3.466,0 0,-3.453 z m -5.343,21.378 3.45,0 0,3.465 -3.45,0 0,-3.465 z m 0,-5.343 3.45,0 0,3.454 -3.45,0 0,-3.454 z m 0,-5.349 3.45,0 0,3.456 -3.45,0 0,-3.456 z m 0,-5.346 3.45,0 0,3.468 -3.45,0 0,-3.468 z m 0,-5.34 3.45,0 0,3.453 -3.45,0 0,-3.453 z m 0,-5.352 3.45,0 0,3.462 -3.45,0 0,-3.462 z m 0,-5.34 3.45,0 0,3.456 -3.45,0 0,-3.456 z"
     id="path25"
     inkscape:connector-curvature="0"
     style="fill:#ffffff" /><path
     d="m 34.253,197.991 3.46,0 0,3.466 -3.46,0 0,-3.466 z m 0,-5.343 3.46,0 0,3.454 -3.46,0 0,-3.454 z m 0,-5.349 3.46,0 0,3.456 -3.46,0 0,-3.456 z m 0,-5.346 3.46,0 0,3.469 -3.46,0 0,-3.469 z m 0,-5.34 3.46,0 0,3.453 -3.46,0 0,-3.453 z m 0,-5.352 3.46,0 0,3.462 -3.46,0 0,-3.462 z m 0,-5.34 3.46,0 0,3.456 -3.46,0 0,-3.456 z m -5.349,5.34 3.46,0 0,3.462 -3.46,0 0,-3.462 z m -5.339,10.692 3.456,0 0,3.469 -3.456,0 0,-3.469 z m 0,-5.34 3.456,0 0,3.453 -3.456,0 0,-3.453 z m -5.349,-5.352 3.459,0 0,3.462 -3.459,0 0,-3.462 z m -5.35,26.73 3.46,0 0,3.466 -3.46,0 0,-3.466 z m 0,-5.343 3.46,0 0,3.454 -3.46,0 0,-3.454 z m 0,-5.349 3.46,0 0,3.456 -3.46,0 0,-3.456 z m 0,-5.346 3.46,0 0,3.469 -3.46,0 0,-3.469 z m 0,-5.34 3.46,0 0,3.453 -3.46,0 0,-3.453 z m 0,-5.352 3.46,0 0,3.462 -3.46,0 0,-3.462 z m 0,-5.34 3.46,0 0,3.456 -3.46,0 0,-3.456 z"
     id="path27"
     inkscape:connector-curvature="0"
     style="fill:#ffffff" /><path
     d="m 162.428,197.991 3.454,0 0,3.466 -3.454,0 0,-3.466 z m 0,-5.343 3.454,0 0,3.454 -3.454,0 0,-3.454 z m 0,-5.349 3.454,0 0,3.456 -3.454,0 0,-3.456 z m 0,-5.346 3.454,0 0,3.469 -3.454,0 0,-3.469 z m 0,-5.34 3.454,0 0,3.453 -3.454,0 0,-3.453 z m 0,-5.352 3.454,0 0,3.462 -3.454,0 0,-3.462 z m -5.354,16.038 3.462,0 0,3.456 -3.462,0 0,-3.456 z m 0,-21.378 3.462,0 0,3.456 -3.462,0 0,-3.456 z m -5.343,21.378 3.468,0 0,3.456 -3.468,0 0,-3.456 z m 0,-21.378 3.468,0 0,3.456 -3.468,0 0,-3.456 z m -5.341,21.378 3.454,0 0,3.456 -3.454,0 0,-3.456 z m 0,-21.378 3.454,0 0,3.456 -3.454,0 0,-3.456 z m -5.349,32.07 3.462,0 0,3.466 -3.462,0 0,-3.466 z m 0,-5.343 3.462,0 0,3.454 -3.462,0 0,-3.454 z m 0,-5.349 3.462,0 0,3.456 -3.462,0 0,-3.456 z m 0,-5.346 3.462,0 0,3.469 -3.462,0 0,-3.469 z m 0,-5.34 3.462,0 0,3.453 -3.462,0 0,-3.453 z m 0,-5.352 3.462,0 0,3.462 -3.462,0 0,-3.462 z"
     id="path29"
     inkscape:connector-curvature="0"
     style="fill:#ffffff" /><path
     d="m 127.707,197.991 3.462,0 0,3.466 -3.462,0 0,-3.466 z m 0,-32.07 3.462,0 0,3.456 -3.462,0 0,-3.456 z m -5.346,32.07 3.462,0 0,3.466 -3.462,0 0,-3.466 z m 0,-5.343 3.462,0 0,3.454 -3.462,0 0,-3.454 z m 0,-5.349 3.462,0 0,3.456 -3.462,0 0,-3.456 z m 0,-5.346 3.462,0 0,3.469 -3.462,0 0,-3.469 z m 0,-5.34 3.462,0 0,3.453 -3.462,0 0,-3.453 z m 0,-5.352 3.462,0 0,3.462 -3.462,0 0,-3.462 z m 0,-5.34 3.462,0 0,3.456 -3.462,0 0,-3.456 z m -5.343,32.07 3.459,0 0,3.466 -3.459,0 0,-3.466 z m 0,-32.07 3.459,0 0,3.456 -3.459,0 0,-3.456 z"
     id="path31"
     inkscape:connector-curvature="0"
     style="fill:#ffffff" /><path
     d="m 68.967,197.991 3.462,0 0,3.466 -3.462,0 0,-3.466 z m 0,-32.07 3.462,0 0,3.456 -3.462,0 0,-3.456 z m -5.343,32.07 3.46,0 0,3.466 -3.46,0 0,-3.466 z m 0,-16.038 3.46,0 0,3.469 -3.46,0 0,-3.469 z m 0,-16.032 3.46,0 0,3.456 -3.46,0 0,-3.456 z m -5.349,32.07 3.462,0 0,3.466 -3.462,0 0,-3.466 z m 0,-16.038 3.462,0 0,3.469 -3.462,0 0,-3.469 z m 0,-16.032 3.462,0 0,3.456 -3.462,0 0,-3.456 z m -5.343,32.07 3.454,0 0,3.466 -3.454,0 0,-3.466 z m 0,-16.038 3.454,0 0,3.469 -3.454,0 0,-3.469 z m 0,-16.032 3.454,0 0,3.456 -3.454,0 0,-3.456 z m -5.354,32.07 3.465,0 0,3.466 -3.465,0 0,-3.466 z m 0,-5.343 3.465,0 0,3.454 -3.465,0 0,-3.454 z m 0,-5.349 3.465,0 0,3.456 -3.465,0 0,-3.456 z m 0,-5.346 3.465,0 0,3.469 -3.465,0 0,-3.469 z m 0,-5.34 3.465,0 0,3.453 -3.465,0 0,-3.453 z m 0,-5.352 3.465,0 0,3.462 -3.465,0 0,-3.462 z m 0,-5.34 3.465,0 0,3.456 -3.465,0 0,-3.456 z"
     id="path33"
     inkscape:connector-curvature="0"
     style="fill:#ffffff" /><path
     d="m 103.685,187.299 3.46,0 0,3.456 -3.46,0 0,-3.456 z m 0,-5.346 3.46,0 0,3.469 -3.46,0 0,-3.469 z m 0,-5.34 3.46,0 0,3.453 -3.46,0 0,-3.453 z m -5.349,16.035 3.46,0 0,3.454 -3.46,0 0,-3.454 z m 0,-21.387 3.46,0 0,3.462 -3.46,0 0,-3.462 z m -5.342,26.73 3.462,0 0,3.466 -3.462,0 0,-3.466 z m 0,-32.07 3.462,0 0,3.456 -3.462,0 0,-3.456 z m -5.347,32.07 3.46,0 0,3.466 -3.46,0 0,-3.466 z m 0,-32.07 3.46,0 0,3.456 -3.46,0 0,-3.456 z m -5.349,32.07 3.456,0 0,3.466 -3.456,0 0,-3.466 z m 0,-5.343 3.456,0 0,3.454 -3.456,0 0,-3.454 z m 0,-5.349 3.456,0 0,3.456 -3.456,0 0,-3.456 z m 0,-5.346 3.456,0 0,3.469 -3.456,0 0,-3.469 z m 0,-5.34 3.456,0 0,3.453 -3.456,0 0,-3.453 z m 0,-5.352 3.456,0 0,3.462 -3.456,0 0,-3.462 z m 0,-5.34 3.456,0 0,3.456 -3.456,0 0,-3.456 z"
     id="path35"
     inkscape:connector-curvature="0"
     style="fill:#ffffff" /><g
     id="g37"
     transform="translate(-269,-111.151)"><defs
       id="defs39"><rect
         id="SVGID_3_"
         x="269"
         y="219.252"
         width="178.748"
         height="178.748" /></defs><clipPath
       id="SVGID_4_"><use
         xlink:href="#SVGID_3_"
         overflow="visible"
         id="use43"
         style="overflow:visible"
         x="0"
         y="0"
         width="100%"
         height="100%" /></clipPath><rect
       x="271"
       y="221.252"
       clip-path="url(#SVGID_4_)"
       width="174.748"
       height="174.748"
       id="rect45"
       style="fill:none;stroke:#ffffff;stroke-width:4" /></g><rect
     x="12.865997"
     y="211.93799"
     width="153.015"
     height="28.913"
     id="rect47"
     style="fill:#ffffff" /><g
     id="g49"
     transform="translate(-269,-111.151)"><defs
       id="defs51"><rect
         id="SVGID_5_"
         x="269"
         y="219.252"
         width="178.748"
         height="178.748" /></defs><clipPath
       id="SVGID_6_"><use
         xlink:href="#SVGID_5_"
         overflow="visible"
         id="use55"
         style="overflow:visible"
         x="0"
         y="0"
         width="100%"
         height="100%" /></clipPath><path
       clip-path="url(#SVGID_6_)"
       d="m 406.58,348.468 5.959,0 0,-12.45 4.72,12.45 2.243,0 4.808,-12.45 0,12.45 6.638,0 0,-21.094 -8.496,0 -3.629,10.236 -3.57,-10.236 -8.673,0 0,21.094 z m -13.364,0.384 c 5.9,0 9.676,-2.803 9.676,-9.146 l 0,-12.332 -6.726,0 0,12.096 c 0,2.773 -0.59,4.13 -2.95,4.13 -2.39,0 -2.98,-1.356 -2.98,-4.101 l 0,-12.125 -6.667,0 0,12.391 c 0,6.018 3.481,9.087 9.647,9.087 m -20.239,-0.384 6.756,0 0,-21.094 -6.756,0 0,21.094 z m -28.351,0 5.96,0 0,-12.45 4.72,12.45 2.242,0 4.809,-12.45 0,12.45 6.638,0 0,-21.094 -8.497,0 -3.628,10.236 -3.57,-10.236 -8.674,0 0,21.094 z m -18.291,0 15.459,0 0,-5.133 -8.791,0 0,-3.157 6.608,0 0,-4.691 -6.608,0 0,-2.979 8.319,0 0,-5.133 -14.987,0 0,21.093 z m -14.279,-11.535 0,-4.544 1.594,0 c 1.799,0 2.714,0.59 2.714,2.125 l 0,0.118 c 0,1.534 -0.885,2.301 -2.744,2.301 l -1.564,0 z m -6.667,11.535 6.667,0 0,-7.228 1.062,0 3.924,7.228 7.022,0 -4.809,-8.615 c 2.095,-0.943 3.57,-2.596 3.57,-5.516 l 0,-0.118 c 0,-4.514 -3.01,-6.845 -8.821,-6.845 l -8.615,0 0,21.094 z m -12.922,-11.359 0,-4.75 1.417,0 c 1.74,0 2.655,0.649 2.655,2.272 l 0,0.118 c 0,1.562 -0.915,2.359 -2.685,2.359 l -1.387,0 z m -6.667,11.359 6.667,0 0,-6.874 2.036,0 c 5.458,0 8.379,-2.478 8.379,-6.874 l 0,-0.118 c 0,-4.514 -2.597,-7.228 -8.674,-7.228 l -8.408,0 0,21.094 z"
       id="path57"
       inkscape:connector-curvature="0"
       style="fill:#1d1d1b" /></g><path
     d="m 21.039,540.155 2.017,0 0,2.017 -2.017,0 0,-2.017 z m 0,-3.122 2.017,0 0,2.018 -2.017,0 0,-2.018 z m 0,-12.479 2.017,0 0,2.017 -2.017,0 0,-2.017 z m -3.121,18.719 2.017,0 0,2.023 -2.017,0 0,-2.023 z m 0,-9.361 2.017,0 0,2.023 -2.017,0 0,-2.023 z m 0,-9.358 2.017,0 0,2.017 -2.017,0 0,-2.017 z m -3.12,18.719 2.019,0 0,2.023 -2.019,0 0,-2.023 z m 0,-9.361 2.019,0 0,2.023 -2.019,0 0,-2.023 z m 0,-9.358 2.019,0 0,2.017 -2.019,0 0,-2.017 z m -3.121,18.719 2.024,0 0,2.023 -2.024,0 0,-2.023 z m 0,-9.361 2.024,0 0,2.023 -2.024,0 0,-2.023 z m 0,-9.358 2.024,0 0,2.017 -2.024,0 0,-2.017 z m -3.117,18.719 2.016,0 0,2.023 -2.016,0 0,-2.023 z m 0,-12.478 2.016,0 0,2.016 -2.016,0 0,-2.016 z m 0,-3.124 2.016,0 0,2.021 -2.016,0 0,-2.021 z"
     id="path59"
     inkscape:connector-curvature="0"
     style="fill:#ffffff" /><path
     d="m 40.677,530.795 2.021,0 0,2.016 -2.021,0 0,-2.016 z m 0,-3.124 2.021,0 0,2.021 -2.021,0 0,-2.021 z m -3.118,6.241 2.019,0 0,2.023 -2.019,0 0,-2.023 z m 0,-9.358 2.019,0 0,2.017 -2.019,0 0,-2.017 z m -3.121,9.358 2.021,0 0,2.023 -2.021,0 0,-2.023 z m 0,-9.358 2.021,0 0,2.017 -2.021,0 0,-2.017 z m -3.12,9.358 2.017,0 0,2.023 -2.017,0 0,-2.023 z m 0,-9.358 2.017,0 0,2.017 -2.017,0 0,-2.017 z m -3.121,18.719 2.021,0 0,2.023 -2.021,0 0,-2.023 z m 0,-3.118 2.021,0 0,2.017 -2.021,0 0,-2.017 z m 0,-3.122 2.021,0 0,2.018 -2.021,0 0,-2.018 z m 0,-3.121 2.021,0 0,2.023 -2.021,0 0,-2.023 z m 0,-3.117 2.021,0 0,2.016 -2.021,0 0,-2.016 z m 0,-3.124 2.021,0 0,2.021 -2.021,0 0,-2.021 z m 0,-3.117 2.021,0 0,2.017 -2.021,0 0,-2.017 z"
     id="path61"
     inkscape:connector-curvature="0"
     style="fill:#ffffff" /><path
     d="m 59.71,543.273 2.021,0 0,2.023 -2.021,0 0,-2.023 z m 0,-3.118 2.021,0 0,2.017 -2.021,0 0,-2.017 z m 0,-3.122 2.021,0 0,2.018 -2.021,0 0,-2.018 z m 0,-3.121 2.021,0 0,2.023 -2.021,0 0,-2.023 z m 0,-3.117 2.021,0 0,2.016 -2.021,0 0,-2.016 z m 0,-3.124 2.021,0 0,2.021 -2.021,0 0,-2.021 z m -3.12,9.362 2.018,0 0,2.018 -2.018,0 0,-2.018 z m 0,-12.479 2.018,0 0,2.017 -2.018,0 0,-2.017 z m -3.124,12.479 2.019,0 0,2.018 -2.019,0 0,-2.018 z m 0,-12.479 2.019,0 0,2.017 -2.019,0 0,-2.017 z m -3.119,12.479 2.021,0 0,2.018 -2.021,0 0,-2.018 z m 0,-12.479 2.021,0 0,2.017 -2.021,0 0,-2.017 z m -3.117,18.719 2.014,0 0,2.023 -2.014,0 0,-2.023 z m 0,-3.118 2.014,0 0,2.017 -2.014,0 0,-2.017 z m 0,-3.122 2.014,0 0,2.018 -2.014,0 0,-2.018 z m 0,-3.121 2.014,0 0,2.023 -2.014,0 0,-2.023 z m 0,-3.117 2.014,0 0,2.016 -2.014,0 0,-2.016 z m 0,-3.124 2.014,0 0,2.021 -2.014,0 0,-2.021 z"
     id="path63"
     inkscape:connector-curvature="0"
     style="fill:#ffffff" /><path
     d="m 74.395,543.273 2.014,0 0,2.023 -2.014,0 0,-2.023 z m 0,-18.719 2.014,0 0,2.017 -2.014,0 0,-2.017 z m -3.124,18.719 2.021,0 0,2.023 -2.021,0 0,-2.023 z m 0,-3.118 2.021,0 0,2.017 -2.021,0 0,-2.017 z m 0,-3.122 2.021,0 0,2.018 -2.021,0 0,-2.018 z m 0,-3.121 2.021,0 0,2.023 -2.021,0 0,-2.023 z m 0,-3.117 2.021,0 0,2.016 -2.021,0 0,-2.016 z m 0,-3.124 2.021,0 0,2.021 -2.021,0 0,-2.021 z m 0,-3.117 2.021,0 0,2.017 -2.021,0 0,-2.017 z m -3.119,18.719 2.021,0 0,2.023 -2.021,0 0,-2.023 z m 0,-18.719 2.021,0 0,2.017 -2.021,0 0,-2.017 z"
     id="path65"
     inkscape:connector-curvature="0"
     style="fill:#ffffff" /><path
     d="m 96.025,543.273 2.014,0 0,2.023 -2.014,0 0,-2.023 z m 0,-3.118 2.014,0 0,2.017 -2.014,0 0,-2.017 z m 0,-3.122 2.014,0 0,2.018 -2.014,0 0,-2.018 z m 0,-3.121 2.014,0 0,2.023 -2.014,0 0,-2.023 z m 0,-3.117 2.014,0 0,2.016 -2.014,0 0,-2.016 z m 0,-3.124 2.014,0 0,2.021 -2.014,0 0,-2.021 z m 0,-3.117 2.014,0 0,2.017 -2.014,0 0,-2.017 z m -3.12,12.479 2.017,0 0,2.018 -2.017,0 0,-2.018 z m -3.122,-3.121 2.017,0 0,2.023 -2.017,0 0,-2.023 z m -3.122,-3.117 2.023,0 0,2.016 -2.023,0 0,-2.016 z m -3.119,12.478 2.014,0 0,2.023 -2.014,0 0,-2.023 z m 0,-3.118 2.014,0 0,2.017 -2.014,0 0,-2.017 z m 0,-3.122 2.014,0 0,2.018 -2.014,0 0,-2.018 z m 0,-3.121 2.014,0 0,2.023 -2.014,0 0,-2.023 z m 0,-3.117 2.014,0 0,2.016 -2.014,0 0,-2.016 z m 0,-3.124 2.014,0 0,2.021 -2.014,0 0,-2.021 z m 0,-3.117 2.014,0 0,2.017 -2.014,0 0,-2.017 z"
     id="path67"
     inkscape:connector-curvature="0"
     style="fill:#ffffff" /><path
     d="m 117.286,543.273 2.019,0 0,2.023 -2.019,0 0,-2.023 z m 0,-3.118 2.019,0 0,2.017 -2.019,0 0,-2.017 z m 0,-3.122 2.019,0 0,2.018 -2.019,0 0,-2.018 z m 0,-3.121 2.019,0 0,2.023 -2.019,0 0,-2.023 z m 0,-3.117 2.019,0 0,2.016 -2.019,0 0,-2.016 z m 0,-3.124 2.019,0 0,2.021 -2.019,0 0,-2.021 z m 0,-3.117 2.019,0 0,2.017 -2.019,0 0,-2.017 z m -3.122,3.117 2.019,0 0,2.021 -2.019,0 0,-2.021 z m -3.117,6.241 2.017,0 0,2.023 -2.017,0 0,-2.023 z m 0,-3.117 2.017,0 0,2.016 -2.017,0 0,-2.016 z m -3.122,-3.124 2.019,0 0,2.021 -2.019,0 0,-2.021 z m -3.122,15.602 2.019,0 0,2.023 -2.019,0 0,-2.023 z m 0,-3.118 2.019,0 0,2.017 -2.019,0 0,-2.017 z m 0,-3.122 2.019,0 0,2.018 -2.019,0 0,-2.018 z m 0,-3.121 2.019,0 0,2.023 -2.019,0 0,-2.023 z m 0,-3.117 2.019,0 0,2.016 -2.019,0 0,-2.016 z m 0,-3.124 2.019,0 0,2.021 -2.019,0 0,-2.021 z m 0,-3.117 2.019,0 0,2.017 -2.019,0 0,-2.017 z"
     id="path69"
     inkscape:connector-curvature="0"
     style="fill:#ffffff" /><path
     d="m 138.304,543.273 2.021,0 0,2.023 -2.021,0 0,-2.023 z m 0,-18.719 2.021,0 0,2.017 -2.021,0 0,-2.017 z m -3.119,18.719 2.019,0 0,2.023 -2.019,0 0,-2.023 z m 0,-9.361 2.019,0 0,2.023 -2.019,0 0,-2.023 z m 0,-9.358 2.019,0 0,2.017 -2.019,0 0,-2.017 z m -3.122,18.719 2.021,0 0,2.023 -2.021,0 0,-2.023 z m 0,-9.361 2.021,0 0,2.023 -2.021,0 0,-2.023 z m 0,-9.358 2.021,0 0,2.017 -2.021,0 0,-2.017 z m -3.119,18.719 2.016,0 0,2.023 -2.016,0 0,-2.023 z m 0,-9.361 2.016,0 0,2.023 -2.016,0 0,-2.023 z m 0,-9.358 2.016,0 0,2.017 -2.016,0 0,-2.017 z m -3.125,18.719 2.022,0 0,2.023 -2.022,0 0,-2.023 z m 0,-3.118 2.022,0 0,2.017 -2.022,0 0,-2.017 z m 0,-3.122 2.022,0 0,2.018 -2.022,0 0,-2.018 z m 0,-3.121 2.022,0 0,2.023 -2.022,0 0,-2.023 z m 0,-3.117 2.022,0 0,2.016 -2.022,0 0,-2.016 z m 0,-3.124 2.022,0 0,2.021 -2.022,0 0,-2.021 z m 0,-3.117 2.022,0 0,2.017 -2.022,0 0,-2.017 z"
     id="path71"
     inkscape:connector-curvature="0"
     style="fill:#ffffff" /><path
     d="m 157.945,537.033 2.019,0 0,2.018 -2.019,0 0,-2.018 z m 0,-3.121 2.019,0 0,2.023 -2.019,0 0,-2.023 z m 0,-3.117 2.019,0 0,2.016 -2.019,0 0,-2.016 z m -3.122,9.36 2.019,0 0,2.017 -2.019,0 0,-2.017 z m 0,-12.484 2.019,0 0,2.021 -2.019,0 0,-2.021 z m -3.119,15.602 2.021,0 0,2.023 -2.021,0 0,-2.023 z m 0,-18.719 2.021,0 0,2.017 -2.021,0 0,-2.017 z m -3.12,18.719 2.019,0 0,2.023 -2.019,0 0,-2.023 z m 0,-18.719 2.019,0 0,2.017 -2.019,0 0,-2.017 z m -3.123,18.719 2.017,0 0,2.023 -2.017,0 0,-2.023 z m 0,-3.118 2.017,0 0,2.017 -2.017,0 0,-2.017 z m 0,-3.122 2.017,0 0,2.018 -2.017,0 0,-2.018 z m 0,-3.121 2.017,0 0,2.023 -2.017,0 0,-2.023 z m 0,-3.117 2.017,0 0,2.016 -2.017,0 0,-2.016 z m 0,-3.124 2.017,0 0,2.021 -2.017,0 0,-2.021 z m 0,-3.117 2.017,0 0,2.017 -2.017,0 0,-2.017 z"
     id="path73"
     inkscape:connector-curvature="0"
     style="fill:#ffffff" /><path
     d="m 170.18,543.273 2.021,0 0,2.023 -2.021,0 0,-2.023 z m 0,-18.719 2.021,0 0,2.017 -2.021,0 0,-2.017 z m -3.12,18.719 2.021,0 0,2.023 -2.021,0 0,-2.023 z m 0,-3.118 2.021,0 0,2.017 -2.021,0 0,-2.017 z m 0,-3.122 2.021,0 0,2.018 -2.021,0 0,-2.018 z m 0,-3.121 2.021,0 0,2.023 -2.021,0 0,-2.023 z m 0,-3.117 2.021,0 0,2.016 -2.021,0 0,-2.016 z m 0,-3.124 2.021,0 0,2.021 -2.021,0 0,-2.021 z m 0,-3.117 2.021,0 0,2.017 -2.021,0 0,-2.017 z m -3.119,18.719 2.019,0 0,2.023 -2.019,0 0,-2.023 z m 0,-18.719 2.019,0 0,2.017 -2.019,0 0,-2.017 z"
     id="path75"
     inkscape:connector-curvature="0"
     style="fill:#ffffff" /><path
     d="m 190.497,543.273 2.016,0 0,2.023 -2.016,0 0,-2.023 z m 0,-3.118 2.016,0 0,2.017 -2.016,0 0,-2.017 z m 0,-3.122 2.016,0 0,2.018 -2.016,0 0,-2.018 z m 0,-3.121 2.016,0 0,2.023 -2.016,0 0,-2.023 z m 0,-3.117 2.016,0 0,2.016 -2.016,0 0,-2.016 z m 0,-3.124 2.016,0 0,2.021 -2.016,0 0,-2.021 z m -3.125,9.362 2.021,0 0,2.018 -2.021,0 0,-2.018 z m 0,-12.479 2.021,0 0,2.017 -2.021,0 0,-2.017 z m -3.119,12.479 2.024,0 0,2.018 -2.024,0 0,-2.018 z m 0,-12.479 2.024,0 0,2.017 -2.024,0 0,-2.017 z m -3.117,12.479 2.016,0 0,2.018 -2.016,0 0,-2.018 z m 0,-12.479 2.016,0 0,2.017 -2.016,0 0,-2.017 z m -3.122,18.719 2.021,0 0,2.023 -2.021,0 0,-2.023 z m 0,-3.118 2.021,0 0,2.017 -2.021,0 0,-2.017 z m 0,-3.122 2.021,0 0,2.018 -2.021,0 0,-2.018 z m 0,-3.121 2.021,0 0,2.023 -2.021,0 0,-2.023 z m 0,-3.117 2.021,0 0,2.016 -2.021,0 0,-2.016 z m 0,-3.124 2.021,0 0,2.021 -2.021,0 0,-2.021 z"
     id="path77"
     inkscape:connector-curvature="0"
     style="fill:#ffffff" /><g
     id="g79"
     transform="translate(-269,-111.151)"><defs
       id="defs81"><rect
         id="SVGID_7_"
         x="270"
         y="628.151"
         width="462.37399"
         height="35.848999" /></defs><clipPath
       id="SVGID_8_"><use
         xlink:href="#SVGID_7_"
         overflow="visible"
         id="use85"
         style="overflow:visible"
         x="0"
         y="0"
         width="100%"
         height="100%" /></clipPath><path
       clip-path="url(#SVGID_8_)"
       d="m 712.88,656.454 6.604,0 0,-15.669 5.242,0 0,-5.04 -17.06,0 0,5.04 5.213,0 0,15.669 z m -14.568,0.377 c 5.561,0 8.572,-3.186 8.572,-7.039 0,-4.604 -2.925,-5.937 -8.109,-6.487 -2.289,-0.29 -2.896,-0.754 -2.896,-1.737 0,-0.898 0.695,-1.506 2.027,-1.506 1.419,0 2.144,0.724 2.287,1.998 l 6.084,0 c -0.348,-4.519 -3.215,-6.604 -8.342,-6.604 -5.156,0 -8.283,2.781 -8.283,6.604 0,4.258 2.027,5.995 7.994,6.661 2.201,0.318 2.953,0.666 2.953,1.767 0,1.014 -0.752,1.709 -2.287,1.709 -2.145,0 -2.781,-1.071 -2.897,-2.375 l -6.228,0 c 0.146,4.662 3.274,7.009 9.125,7.009 m -22.708,-8.284 2.086,-7.502 2.027,7.502 -4.113,0 z m -8.254,7.907 6.111,0 0.956,-3.447 6.487,0 0.986,3.447 6.95,0 -6.487,-20.709 -8.486,0 -6.517,20.709 z m -10.137,0.377 c 5.475,0 9.471,-2.868 9.818,-8.312 l -6.545,0 c -0.232,2.085 -1.564,3.041 -3.418,3.041 -2.549,0 -3.939,-1.911 -3.939,-5.358 l 0,-0.232 c 0,-3.504 1.448,-5.357 3.823,-5.357 1.825,0 2.839,1.071 3.041,2.982 l 6.778,0 c -0.494,-5.618 -4.258,-8.168 -9.849,-8.168 -6.11,0 -10.716,4.171 -10.716,10.572 l 0,0.232 c 10e-4,6.342 3.534,10.6 11.007,10.6 m -25.111,-5.417 0,-10.629 1.071,0 c 3.187,0 4.604,1.39 4.604,5.184 l 0,0.232 c 0,3.62 -1.36,5.213 -4.575,5.213 l -1.1,0 z m -6.575,5.04 7.906,0 c 7.299,0 11.18,-3.794 11.18,-10.398 l 0,-0.202 c 0,-6.574 -3.764,-10.108 -11.18,-10.108 l -7.906,0 0,20.708 z m -13.729,-4.779 c -2.606,0 -4.257,-1.94 -4.257,-5.474 l 0,-0.232 c 0,-3.532 1.65,-5.416 4.199,-5.416 2.607,0 4.287,1.912 4.287,5.416 l 0,0.232 c 0,3.447 -1.651,5.474 -4.229,5.474 m -0.173,5.156 c 6.807,0 11.236,-4.316 11.236,-10.775 l 0,-0.231 c 0,-6.545 -4.75,-10.398 -11.121,-10.398 -6.198,0 -11.064,4.171 -11.064,10.572 l 0,0.232 c 0,6.284 4.172,10.6 10.949,10.6 m -22.678,-11.528 0,-4.663 1.39,0 c 1.709,0 2.606,0.638 2.606,2.23 l 0,0.116 c 0,1.535 -0.897,2.316 -2.635,2.316 l -1.361,0 z m -6.547,11.151 6.547,0 0,-6.749 1.998,0 c 5.359,0 8.226,-2.432 8.226,-6.748 l 0,-0.116 c 0,-4.431 -2.549,-7.096 -8.515,-7.096 l -8.256,0 0,20.709 z"
       id="path87"
       inkscape:connector-curvature="0"
       style="fill:#ff0000" /></g><rect
     x="198.03299"
     y="524.55402"
     width="109.77"
     height="20.742001"
     id="rect89"
     style="fill:#ffffff" /><g
     id="g91"
     transform="translate(-269,-111.151)"><defs
       id="defs93"><rect
         id="SVGID_9_"
         x="270"
         y="628.151"
         width="462.37399"
         height="35.848999" /></defs><clipPath
       id="SVGID_10_"><use
         xlink:href="#SVGID_9_"
         overflow="visible"
         id="use97"
         style="overflow:visible"
         x="0"
         y="0"
         width="100%"
         height="100%" /></clipPath><path
       clip-path="url(#SVGID_10_)"
       d="m 556.5,653.911 4.274,0 0,-8.931 3.388,8.931 1.607,0 3.45,-8.931 0,8.931 4.762,0 0,-15.132 -6.096,0 -2.603,7.344 -2.562,-7.344 -6.22,0 0,15.132 z m -9.588,0.276 c 4.233,0 6.942,-2.01 6.942,-6.561 l 0,-8.847 -4.825,0 0,8.677 c 0,1.989 -0.424,2.964 -2.117,2.964 -1.713,0 -2.138,-0.975 -2.138,-2.942 l 0,-8.698 -4.782,0 0,8.89 c 0,4.315 2.498,6.517 6.92,6.517 m -14.518,-0.276 4.847,0 0,-15.132 -4.847,0 0,15.132 z m -20.338,0 4.275,0 0,-8.931 3.386,8.931 1.609,0 3.45,-8.931 0,8.931 4.761,0 0,-15.132 -6.095,0 -2.603,7.344 -2.561,-7.344 -6.222,0 0,15.132 z m -13.122,0 11.09,0 0,-3.683 -6.307,0 0,-2.264 4.741,0 0,-3.364 -4.741,0 0,-2.138 5.969,0 0,-3.683 -10.752,0 0,15.132 z m -10.244,-8.274 0,-3.26 1.143,0 c 1.291,0 1.947,0.424 1.947,1.523 l 0,0.085 c 0,1.102 -0.635,1.651 -1.968,1.651 l -1.122,0 z m -4.782,8.274 4.783,0 0,-5.185 0.762,0 2.815,5.185 5.037,0 -3.45,-6.18 c 1.503,-0.677 2.561,-1.862 2.561,-3.958 l 0,-0.084 c 0,-3.238 -2.159,-4.91 -6.328,-4.91 l -6.18,0 0,15.132 z m -9.27,-8.147 0,-3.408 1.016,0 c 1.249,0 1.905,0.466 1.905,1.63 l 0,0.085 c 0,1.121 -0.656,1.693 -1.926,1.693 l -0.995,0 z m -4.784,8.147 4.783,0 0,-4.931 1.46,0 c 3.916,0 6.011,-1.778 6.011,-4.932 l 0,-0.084 c 0,-3.238 -1.862,-5.186 -6.222,-5.186 l -6.032,0 0,15.133 z"
       id="path99"
       inkscape:connector-curvature="0"
       style="fill:#1d1d1b" /></g><rect
     x="1"
     y="610.10101"
     width="174.748"
     height="174.748"
     id="rect101"
     style="fill:#1d1d1b" /><g
     id="g103"
     transform="translate(-269,-111.151)"><defs
       id="defs105"><rect
         id="SVGID_11_"
         x="270"
         y="721.25201"
         width="174.748"
         height="174.748" /></defs><clipPath
       id="SVGID_12_"><use
         xlink:href="#SVGID_11_"
         overflow="visible"
         id="use109"
         style="overflow:visible"
         x="0"
         y="0"
         width="100%"
         height="100%" /></clipPath><path
       clip-path="url(#SVGID_12_)"
       d="m 421.146,885.091 7.1,0 0,-16.846 5.636,0 0,-5.418 -18.341,0 0,5.418 5.605,0 0,16.846 z m -15.663,0.405 c 5.978,0 9.217,-3.425 9.217,-7.566 0,-4.951 -3.145,-6.384 -8.719,-6.976 -2.46,-0.312 -3.114,-0.81 -3.114,-1.868 0,-0.966 0.747,-1.62 2.18,-1.62 1.526,0 2.304,0.779 2.46,2.149 l 6.539,0 c -0.374,-4.858 -3.456,-7.1 -8.968,-7.1 -5.543,0 -8.906,2.989 -8.906,7.1 0,4.577 2.18,6.446 8.595,7.162 2.366,0.342 3.176,0.716 3.176,1.898 0,1.091 -0.81,1.839 -2.46,1.839 -2.305,0 -2.99,-1.153 -3.114,-2.555 l -6.695,0 c 0.157,5.016 3.519,7.537 9.809,7.537 m -24.413,-8.906 2.242,-8.064 2.18,8.064 -4.422,0 z m -8.875,8.501 6.571,0 1.027,-3.706 6.975,0 1.059,3.706 7.473,0 -6.975,-22.264 -9.123,0 -7.007,22.264 z m -10.898,0.405 c 5.885,0 10.182,-3.083 10.556,-8.937 l -7.037,0 c -0.25,2.241 -1.682,3.27 -3.675,3.27 -2.74,0 -4.235,-2.056 -4.235,-5.761 l 0,-0.249 c 0,-3.769 1.557,-5.761 4.111,-5.761 1.961,0 3.051,1.151 3.269,3.207 l 7.287,0 c -0.53,-6.041 -4.578,-8.781 -10.588,-8.781 -6.57,0 -11.521,4.483 -11.521,11.366 l 0,0.249 c 0,6.819 3.8,11.397 11.833,11.397 m -26.997,-5.823 0,-11.428 1.152,0 c 3.425,0 4.951,1.494 4.951,5.574 l 0,0.249 c 0,3.892 -1.464,5.604 -4.92,5.604 l -1.183,0 z m -7.069,5.418 8.501,0 c 7.847,0 12.02,-4.079 12.02,-11.179 l 0,-0.218 c 0,-7.068 -4.048,-10.867 -12.02,-10.867 l -8.501,0 0,22.264 z m -14.759,-5.138 c -2.802,0 -4.577,-2.086 -4.577,-5.885 l 0,-0.249 c 0,-3.799 1.775,-5.823 4.515,-5.823 2.803,0 4.609,2.055 4.609,5.823 l 0,0.249 c 0,3.705 -1.775,5.885 -4.547,5.885 m -0.186,5.543 c 7.317,0 12.081,-4.64 12.081,-11.584 l 0,-0.249 c 0,-7.037 -5.106,-11.179 -11.957,-11.179 -6.664,0 -11.895,4.483 -11.895,11.366 l 0,0.249 c 0,6.757 4.484,11.397 11.771,11.397 m -24.383,-12.393 0,-5.014 1.495,0 c 1.837,0 2.803,0.686 2.803,2.398 l 0,0.124 c 0,1.65 -0.966,2.491 -2.834,2.491 l -1.464,0 z m -7.036,11.988 7.037,0 0,-7.255 2.149,0 c 5.761,0 8.844,-2.616 8.844,-7.256 l 0,-0.124 c 0,-4.765 -2.741,-7.629 -9.155,-7.629 l -8.875,0 0,22.264 z"
       id="path111"
       inkscape:connector-curvature="0"
       style="fill:#ff0000" /></g><path
     d="m 33.245,647.757 3.456,0 0,3.454 -3.456,0 0,-3.454 z m 0,-5.349 3.456,0 0,3.456 -3.456,0 0,-3.456 z m 0,-21.378 3.456,0 0,3.456 -3.456,0 0,-3.456 z m -5.347,32.07 3.456,0 0,3.465 -3.456,0 0,-3.465 z m 0,-16.038 3.456,0 0,3.468 -3.456,0 0,-3.468 z m 0,-16.032 3.456,0 0,3.456 -3.456,0 0,-3.456 z m -5.345,32.07 3.459,0 0,3.465 -3.459,0 0,-3.465 z m 0,-16.038 3.459,0 0,3.468 -3.459,0 0,-3.468 z m 0,-16.032 3.459,0 0,3.456 -3.459,0 0,-3.456 z m -5.347,32.07 3.468,0 0,3.465 -3.468,0 0,-3.465 z m 0,-16.038 3.468,0 0,3.468 -3.468,0 0,-3.468 z m 0,-16.032 3.468,0 0,3.456 -3.468,0 0,-3.456 z m -5.34,32.07 3.454,0 0,3.465 -3.454,0 0,-3.465 z m 0,-21.378 3.454,0 0,3.453 -3.454,0 0,-3.453 z m 0,-5.352 3.454,0 0,3.462 -3.454,0 0,-3.462 z"
     id="path113"
     inkscape:connector-curvature="0"
     style="fill:#ffffff" /><path
     d="m 67.959,631.722 3.462,0 0,3.453 -3.462,0 0,-3.453 z m 0,-5.352 3.462,0 0,3.462 -3.462,0 0,-3.462 z m -5.343,10.692 3.46,0 0,3.468 -3.46,0 0,-3.468 z m 0,-16.032 3.46,0 0,3.456 -3.46,0 0,-3.456 z m -5.346,16.032 3.462,0 0,3.468 -3.462,0 0,-3.468 z m 0,-16.032 3.462,0 0,3.456 -3.462,0 0,-3.456 z m -5.346,16.032 3.456,0 0,3.468 -3.456,0 0,-3.468 z m 0,-16.032 3.456,0 0,3.456 -3.456,0 0,-3.456 z m -5.346,32.07 3.462,0 0,3.465 -3.462,0 0,-3.465 z m 0,-5.343 3.462,0 0,3.454 -3.462,0 0,-3.454 z m 0,-5.349 3.462,0 0,3.456 -3.462,0 0,-3.456 z m 0,-5.346 3.462,0 0,3.468 -3.462,0 0,-3.468 z m 0,-5.34 3.462,0 0,3.453 -3.462,0 0,-3.453 z m 0,-5.352 3.462,0 0,3.462 -3.462,0 0,-3.462 z m 0,-5.34 3.462,0 0,3.456 -3.462,0 0,-3.456 z"
     id="path115"
     inkscape:connector-curvature="0"
     style="fill:#ffffff" /><path
     d="m 102.679,653.1 3.462,0 0,3.465 -3.462,0 0,-3.465 z m 0,-5.343 3.462,0 0,3.454 -3.462,0 0,-3.454 z m 0,-5.349 3.462,0 0,3.456 -3.462,0 0,-3.456 z m 0,-5.346 3.462,0 0,3.468 -3.462,0 0,-3.468 z m 0,-5.34 3.462,0 0,3.453 -3.462,0 0,-3.453 z m 0,-5.352 3.462,0 0,3.462 -3.462,0 0,-3.462 z m -5.347,16.038 3.457,0 0,3.456 -3.457,0 0,-3.456 z m 0,-21.378 3.457,0 0,3.456 -3.457,0 0,-3.456 z m -5.351,21.378 3.46,0 0,3.456 -3.46,0 0,-3.456 z m 0,-21.378 3.46,0 0,3.456 -3.46,0 0,-3.456 z m -5.343,21.378 3.462,0 0,3.456 -3.462,0 0,-3.456 z m 0,-21.378 3.462,0 0,3.456 -3.462,0 0,-3.456 z m -5.34,32.07 3.45,0 0,3.465 -3.45,0 0,-3.465 z m 0,-5.343 3.45,0 0,3.454 -3.45,0 0,-3.454 z m 0,-5.349 3.45,0 0,3.456 -3.45,0 0,-3.456 z m 0,-5.346 3.45,0 0,3.468 -3.45,0 0,-3.468 z m 0,-5.34 3.45,0 0,3.453 -3.45,0 0,-3.453 z m 0,-5.352 3.45,0 0,3.462 -3.45,0 0,-3.462 z"
     id="path117"
     inkscape:connector-curvature="0"
     style="fill:#ffffff" /><path
     d="m 126.713,653.1 3.451,0 0,3.465 -3.451,0 0,-3.465 z m 0,-32.07 3.451,0 0,3.456 -3.451,0 0,-3.456 z m -5.352,32.07 3.462,0 0,3.465 -3.462,0 0,-3.465 z m 0,-5.343 3.462,0 0,3.454 -3.462,0 0,-3.454 z m 0,-5.349 3.462,0 0,3.456 -3.462,0 0,-3.456 z m 0,-5.346 3.462,0 0,3.468 -3.462,0 0,-3.468 z m 0,-5.34 3.462,0 0,3.453 -3.462,0 0,-3.453 z m 0,-5.352 3.462,0 0,3.462 -3.462,0 0,-3.462 z m 0,-5.34 3.462,0 0,3.456 -3.462,0 0,-3.456 z m -5.343,32.07 3.462,0 0,3.465 -3.462,0 0,-3.465 z m 0,-32.07 3.462,0 0,3.456 -3.462,0 0,-3.456 z"
     id="path119"
     inkscape:connector-curvature="0"
     style="fill:#ffffff" /><path
     d="m 161.428,653.1 3.45,0 0,3.465 -3.45,0 0,-3.465 z m 0,-5.343 3.45,0 0,3.454 -3.45,0 0,-3.454 z m 0,-5.349 3.45,0 0,3.456 -3.45,0 0,-3.456 z m 0,-5.346 3.45,0 0,3.468 -3.45,0 0,-3.468 z m 0,-5.34 3.45,0 0,3.453 -3.45,0 0,-3.453 z m 0,-5.352 3.45,0 0,3.462 -3.45,0 0,-3.462 z m 0,-5.34 3.45,0 0,3.456 -3.45,0 0,-3.456 z m -5.346,21.378 3.456,0 0,3.456 -3.456,0 0,-3.456 z m -5.349,-5.346 3.456,0 0,3.468 -3.456,0 0,-3.468 z m -5.349,-5.34 3.466,0 0,3.453 -3.466,0 0,-3.453 z m -5.343,21.378 3.45,0 0,3.465 -3.45,0 0,-3.465 z m 0,-5.343 3.45,0 0,3.454 -3.45,0 0,-3.454 z m 0,-5.349 3.45,0 0,3.456 -3.45,0 0,-3.456 z m 0,-5.346 3.45,0 0,3.468 -3.45,0 0,-3.468 z m 0,-5.34 3.45,0 0,3.453 -3.45,0 0,-3.453 z m 0,-5.352 3.45,0 0,3.462 -3.45,0 0,-3.462 z m 0,-5.34 3.45,0 0,3.456 -3.45,0 0,-3.456 z"
     id="path121"
     inkscape:connector-curvature="0"
     style="fill:#ffffff" /><path
     d="m 33.253,697.991 3.46,0 0,3.466 -3.46,0 0,-3.466 z m 0,-5.343 3.46,0 0,3.454 -3.46,0 0,-3.454 z m 0,-5.349 3.46,0 0,3.456 -3.46,0 0,-3.456 z m 0,-5.346 3.46,0 0,3.469 -3.46,0 0,-3.469 z m 0,-5.34 3.46,0 0,3.453 -3.46,0 0,-3.453 z m 0,-5.352 3.46,0 0,3.462 -3.46,0 0,-3.462 z m 0,-5.34 3.46,0 0,3.456 -3.46,0 0,-3.456 z m -5.349,5.34 3.46,0 0,3.462 -3.46,0 0,-3.462 z m -5.339,10.692 3.456,0 0,3.469 -3.456,0 0,-3.469 z m 0,-5.34 3.456,0 0,3.453 -3.456,0 0,-3.453 z m -5.349,-5.352 3.459,0 0,3.462 -3.459,0 0,-3.462 z m -5.35,26.73 3.46,0 0,3.466 -3.46,0 0,-3.466 z m 0,-5.343 3.46,0 0,3.454 -3.46,0 0,-3.454 z m 0,-5.349 3.46,0 0,3.456 -3.46,0 0,-3.456 z m 0,-5.346 3.46,0 0,3.469 -3.46,0 0,-3.469 z m 0,-5.34 3.46,0 0,3.453 -3.46,0 0,-3.453 z m 0,-5.352 3.46,0 0,3.462 -3.46,0 0,-3.462 z m 0,-5.34 3.46,0 0,3.456 -3.46,0 0,-3.456 z"
     id="path123"
     inkscape:connector-curvature="0"
     style="fill:#ffffff" /><path
     d="m 161.428,697.991 3.454,0 0,3.466 -3.454,0 0,-3.466 z m 0,-5.343 3.454,0 0,3.454 -3.454,0 0,-3.454 z m 0,-5.349 3.454,0 0,3.456 -3.454,0 0,-3.456 z m 0,-5.346 3.454,0 0,3.469 -3.454,0 0,-3.469 z m 0,-5.34 3.454,0 0,3.453 -3.454,0 0,-3.453 z m 0,-5.352 3.454,0 0,3.462 -3.454,0 0,-3.462 z m -5.354,16.038 3.462,0 0,3.456 -3.462,0 0,-3.456 z m 0,-21.378 3.462,0 0,3.456 -3.462,0 0,-3.456 z m -5.343,21.378 3.468,0 0,3.456 -3.468,0 0,-3.456 z m 0,-21.378 3.468,0 0,3.456 -3.468,0 0,-3.456 z m -5.341,21.378 3.454,0 0,3.456 -3.454,0 0,-3.456 z m 0,-21.378 3.454,0 0,3.456 -3.454,0 0,-3.456 z m -5.349,32.07 3.462,0 0,3.466 -3.462,0 0,-3.466 z m 0,-5.343 3.462,0 0,3.454 -3.462,0 0,-3.454 z m 0,-5.349 3.462,0 0,3.456 -3.462,0 0,-3.456 z m 0,-5.346 3.462,0 0,3.469 -3.462,0 0,-3.469 z m 0,-5.34 3.462,0 0,3.453 -3.462,0 0,-3.453 z m 0,-5.352 3.462,0 0,3.462 -3.462,0 0,-3.462 z"
     id="path125"
     inkscape:connector-curvature="0"
     style="fill:#ffffff" /><path
     d="m 126.707,697.991 3.462,0 0,3.466 -3.462,0 0,-3.466 z m 0,-32.07 3.462,0 0,3.456 -3.462,0 0,-3.456 z m -5.346,32.07 3.462,0 0,3.466 -3.462,0 0,-3.466 z m 0,-5.343 3.462,0 0,3.454 -3.462,0 0,-3.454 z m 0,-5.349 3.462,0 0,3.456 -3.462,0 0,-3.456 z m 0,-5.346 3.462,0 0,3.469 -3.462,0 0,-3.469 z m 0,-5.34 3.462,0 0,3.453 -3.462,0 0,-3.453 z m 0,-5.352 3.462,0 0,3.462 -3.462,0 0,-3.462 z m 0,-5.34 3.462,0 0,3.456 -3.462,0 0,-3.456 z m -5.343,32.07 3.459,0 0,3.466 -3.459,0 0,-3.466 z m 0,-32.07 3.459,0 0,3.456 -3.459,0 0,-3.456 z"
     id="path127"
     inkscape:connector-curvature="0"
     style="fill:#ffffff" /><path
     d="m 67.967,697.991 3.462,0 0,3.466 -3.462,0 0,-3.466 z m 0,-32.07 3.462,0 0,3.456 -3.462,0 0,-3.456 z m -5.343,32.07 3.46,0 0,3.466 -3.46,0 0,-3.466 z m 0,-16.038 3.46,0 0,3.469 -3.46,0 0,-3.469 z m 0,-16.032 3.46,0 0,3.456 -3.46,0 0,-3.456 z m -5.349,32.07 3.462,0 0,3.466 -3.462,0 0,-3.466 z m 0,-16.038 3.462,0 0,3.469 -3.462,0 0,-3.469 z m 0,-16.032 3.462,0 0,3.456 -3.462,0 0,-3.456 z m -5.343,32.07 3.454,0 0,3.466 -3.454,0 0,-3.466 z m 0,-16.038 3.454,0 0,3.469 -3.454,0 0,-3.469 z m 0,-16.032 3.454,0 0,3.456 -3.454,0 0,-3.456 z m -5.354,32.07 3.465,0 0,3.466 -3.465,0 0,-3.466 z m 0,-5.343 3.465,0 0,3.454 -3.465,0 0,-3.454 z m 0,-5.349 3.465,0 0,3.456 -3.465,0 0,-3.456 z m 0,-5.346 3.465,0 0,3.469 -3.465,0 0,-3.469 z m 0,-5.34 3.465,0 0,3.453 -3.465,0 0,-3.453 z m 0,-5.352 3.465,0 0,3.462 -3.465,0 0,-3.462 z m 0,-5.34 3.465,0 0,3.456 -3.465,0 0,-3.456 z"
     id="path129"
     inkscape:connector-curvature="0"
     style="fill:#ffffff" /><path
     d="m 102.685,687.299 3.46,0 0,3.456 -3.46,0 0,-3.456 z m 0,-5.346 3.46,0 0,3.469 -3.46,0 0,-3.469 z m 0,-5.34 3.46,0 0,3.453 -3.46,0 0,-3.453 z m -5.349,16.035 3.46,0 0,3.454 -3.46,0 0,-3.454 z m 0,-21.387 3.46,0 0,3.462 -3.46,0 0,-3.462 z m -5.342,26.73 3.462,0 0,3.466 -3.462,0 0,-3.466 z m 0,-32.07 3.462,0 0,3.456 -3.462,0 0,-3.456 z m -5.347,32.07 3.46,0 0,3.466 -3.46,0 0,-3.466 z m 0,-32.07 3.46,0 0,3.456 -3.46,0 0,-3.456 z m -5.349,32.07 3.456,0 0,3.466 -3.456,0 0,-3.466 z m 0,-5.343 3.456,0 0,3.454 -3.456,0 0,-3.454 z m 0,-5.349 3.456,0 0,3.456 -3.456,0 0,-3.456 z m 0,-5.346 3.456,0 0,3.469 -3.456,0 0,-3.469 z m 0,-5.34 3.456,0 0,3.453 -3.456,0 0,-3.453 z m 0,-5.352 3.456,0 0,3.462 -3.456,0 0,-3.462 z m 0,-5.34 3.456,0 0,3.456 -3.456,0 0,-3.456 z"
     id="path131"
     inkscape:connector-curvature="0"
     style="fill:#ffffff" /><rect
     x="11.865997"
     y="711.93799"
     width="153.015"
     height="28.913"
     id="rect133"
     style="fill:#ffffff" /><g
     id="g135"
     transform="translate(-269,-111.151)"><defs
       id="defs137"><rect
         id="SVGID_13_"
         x="270"
         y="721.25201"
         width="174.748"
         height="174.748" /></defs><clipPath
       id="SVGID_14_"><use
         xlink:href="#SVGID_13_"
         overflow="visible"
         id="use141"
         style="overflow:visible"
         x="0"
         y="0"
         width="100%"
         height="100%" /></clipPath><path
       clip-path="url(#SVGID_14_)"
       d="m 405.58,848.468 5.959,0 0,-12.45 4.72,12.45 2.243,0 4.808,-12.45 0,12.45 6.638,0 0,-21.094 -8.496,0 -3.629,10.236 -3.57,-10.236 -8.673,0 0,21.094 z m -13.364,0.384 c 5.9,0 9.676,-2.803 9.676,-9.146 l 0,-12.332 -6.726,0 0,12.096 c 0,2.773 -0.59,4.13 -2.95,4.13 -2.39,0 -2.98,-1.356 -2.98,-4.101 l 0,-12.125 -6.667,0 0,12.391 c 0,6.018 3.481,9.087 9.647,9.087 m -20.239,-0.384 6.756,0 0,-21.094 -6.756,0 0,21.094 z m -28.351,0 5.96,0 0,-12.45 4.72,12.45 2.242,0 4.809,-12.45 0,12.45 6.638,0 0,-21.094 -8.497,0 -3.628,10.236 -3.57,-10.236 -8.674,0 0,21.094 z m -18.291,0 15.459,0 0,-5.133 -8.791,0 0,-3.157 6.608,0 0,-4.691 -6.608,0 0,-2.979 8.319,0 0,-5.133 -14.987,0 0,21.093 z m -14.279,-11.535 0,-4.544 1.594,0 c 1.799,0 2.714,0.59 2.714,2.125 l 0,0.118 c 0,1.534 -0.885,2.301 -2.744,2.301 l -1.564,0 z m -6.667,11.535 6.667,0 0,-7.228 1.062,0 3.924,7.228 7.022,0 -4.809,-8.615 c 2.095,-0.943 3.57,-2.596 3.57,-5.516 l 0,-0.118 c 0,-4.514 -3.01,-6.845 -8.821,-6.845 l -8.615,0 0,21.094 z m -12.922,-11.359 0,-4.75 1.417,0 c 1.74,0 2.655,0.649 2.655,2.272 l 0,0.118 c 0,1.562 -0.915,2.359 -2.685,2.359 l -1.387,0 z m -6.667,11.359 6.667,0 0,-6.874 2.036,0 c 5.458,0 8.379,-2.478 8.379,-6.874 l 0,-0.118 c 0,-4.514 -2.597,-7.228 -8.674,-7.228 l -8.408,0 0,21.094 z"
       id="path143"
       inkscape:connector-curvature="0"
       style="fill:#1d1d1b" /></g><g
     id="g145"
     transform="translate(-269,-111.151)"><g
       id="g147"><defs
         id="defs149"><rect
           id="SVGID_15_"
           x="269"
           y="111.151"
           width="466.37399"
           height="39.848999" /></defs><clipPath
         id="SVGID_16_"><use
           xlink:href="#SVGID_15_"
           overflow="visible"
           id="use153"
           style="overflow:visible"
           x="0"
           y="0"
           width="100%"
           height="100%" /></clipPath><rect
         x="271"
         y="113.151"
         clip-path="url(#SVGID_16_)"
         width="462.37399"
         height="35.848999"
         id="rect155"
         style="fill:none;stroke:#ffffff;stroke-width:4" /></g><path
       d="m 291.039,136.306 2.017,0 0,2.017 -2.017,0 0,-2.017 z m 0,-3.122 2.017,0 0,2.018 -2.017,0 0,-2.018 z m 0,-12.479 2.017,0 0,2.017 -2.017,0 0,-2.017 z m -3.121,18.719 2.017,0 0,2.023 -2.017,0 0,-2.023 z m 0,-9.361 2.017,0 0,2.023 -2.017,0 0,-2.023 z m 0,-9.358 2.017,0 0,2.017 -2.017,0 0,-2.017 z m -3.12,18.719 2.019,0 0,2.023 -2.019,0 0,-2.023 z m 0,-9.361 2.019,0 0,2.023 -2.019,0 0,-2.023 z m 0,-9.358 2.019,0 0,2.017 -2.019,0 0,-2.017 z m -3.121,18.719 2.024,0 0,2.023 -2.024,0 0,-2.023 z m 0,-9.361 2.024,0 0,2.023 -2.024,0 0,-2.023 z m 0,-9.358 2.024,0 0,2.017 -2.024,0 0,-2.017 z m -3.117,18.719 2.016,0 0,2.023 -2.016,0 0,-2.023 z m 0,-12.478 2.016,0 0,2.016 -2.016,0 0,-2.016 z m 0,-3.124 2.016,0 0,2.021 -2.016,0 0,-2.021 z"
       id="path157"
       inkscape:connector-curvature="0"
       style="fill:#ffffff" /><path
       d="m 310.677,126.946 2.021,0 0,2.016 -2.021,0 0,-2.016 z m 0,-3.124 2.021,0 0,2.021 -2.021,0 0,-2.021 z m -3.118,6.241 2.019,0 0,2.023 -2.019,0 0,-2.023 z m 0,-9.358 2.019,0 0,2.017 -2.019,0 0,-2.017 z m -3.121,9.358 2.021,0 0,2.023 -2.021,0 0,-2.023 z m 0,-9.358 2.021,0 0,2.017 -2.021,0 0,-2.017 z m -3.12,9.358 2.017,0 0,2.023 -2.017,0 0,-2.023 z m 0,-9.358 2.017,0 0,2.017 -2.017,0 0,-2.017 z m -3.121,18.719 2.021,0 0,2.023 -2.021,0 0,-2.023 z m 0,-3.118 2.021,0 0,2.017 -2.021,0 0,-2.017 z m 0,-3.122 2.021,0 0,2.018 -2.021,0 0,-2.018 z m 0,-3.121 2.021,0 0,2.023 -2.021,0 0,-2.023 z m 0,-3.117 2.021,0 0,2.016 -2.021,0 0,-2.016 z m 0,-3.124 2.021,0 0,2.021 -2.021,0 0,-2.021 z m 0,-3.117 2.021,0 0,2.017 -2.021,0 0,-2.017 z"
       id="path159"
       inkscape:connector-curvature="0"
       style="fill:#ffffff" /><path
       d="m 329.71,139.424 2.021,0 0,2.023 -2.021,0 0,-2.023 z m 0,-3.118 2.021,0 0,2.017 -2.021,0 0,-2.017 z m 0,-3.122 2.021,0 0,2.018 -2.021,0 0,-2.018 z m 0,-3.121 2.021,0 0,2.023 -2.021,0 0,-2.023 z m 0,-3.117 2.021,0 0,2.016 -2.021,0 0,-2.016 z m 0,-3.124 2.021,0 0,2.021 -2.021,0 0,-2.021 z m -3.12,9.362 2.018,0 0,2.018 -2.018,0 0,-2.018 z m 0,-12.479 2.018,0 0,2.017 -2.018,0 0,-2.017 z m -3.124,12.479 2.019,0 0,2.018 -2.019,0 0,-2.018 z m 0,-12.479 2.019,0 0,2.017 -2.019,0 0,-2.017 z m -3.119,12.479 2.021,0 0,2.018 -2.021,0 0,-2.018 z m 0,-12.479 2.021,0 0,2.017 -2.021,0 0,-2.017 z m -3.117,18.719 2.014,0 0,2.023 -2.014,0 0,-2.023 z m 0,-3.118 2.014,0 0,2.017 -2.014,0 0,-2.017 z m 0,-3.122 2.014,0 0,2.018 -2.014,0 0,-2.018 z m 0,-3.121 2.014,0 0,2.023 -2.014,0 0,-2.023 z m 0,-3.117 2.014,0 0,2.016 -2.014,0 0,-2.016 z m 0,-3.124 2.014,0 0,2.021 -2.014,0 0,-2.021 z"
       id="path161"
       inkscape:connector-curvature="0"
       style="fill:#ffffff" /><path
       d="m 344.395,139.424 2.014,0 0,2.023 -2.014,0 0,-2.023 z m 0,-18.719 2.014,0 0,2.017 -2.014,0 0,-2.017 z m -3.124,18.719 2.021,0 0,2.023 -2.021,0 0,-2.023 z m 0,-3.118 2.021,0 0,2.017 -2.021,0 0,-2.017 z m 0,-3.122 2.021,0 0,2.018 -2.021,0 0,-2.018 z m 0,-3.121 2.021,0 0,2.023 -2.021,0 0,-2.023 z m 0,-3.117 2.021,0 0,2.016 -2.021,0 0,-2.016 z m 0,-3.124 2.021,0 0,2.021 -2.021,0 0,-2.021 z m 0,-3.117 2.021,0 0,2.017 -2.021,0 0,-2.017 z m -3.119,18.719 2.021,0 0,2.023 -2.021,0 0,-2.023 z m 0,-18.719 2.021,0 0,2.017 -2.021,0 0,-2.017 z"
       id="path163"
       inkscape:connector-curvature="0"
       style="fill:#ffffff" /><path
       d="m 366.025,139.424 2.014,0 0,2.023 -2.014,0 0,-2.023 z m 0,-3.118 2.014,0 0,2.017 -2.014,0 0,-2.017 z m 0,-3.122 2.014,0 0,2.018 -2.014,0 0,-2.018 z m 0,-3.121 2.014,0 0,2.023 -2.014,0 0,-2.023 z m 0,-3.117 2.014,0 0,2.016 -2.014,0 0,-2.016 z m 0,-3.124 2.014,0 0,2.021 -2.014,0 0,-2.021 z m 0,-3.117 2.014,0 0,2.017 -2.014,0 0,-2.017 z m -3.12,12.479 2.017,0 0,2.018 -2.017,0 0,-2.018 z m -3.122,-3.121 2.017,0 0,2.023 -2.017,0 0,-2.023 z m -3.122,-3.117 2.023,0 0,2.016 -2.023,0 0,-2.016 z m -3.119,12.478 2.014,0 0,2.023 -2.014,0 0,-2.023 z m 0,-3.118 2.014,0 0,2.017 -2.014,0 0,-2.017 z m 0,-3.122 2.014,0 0,2.018 -2.014,0 0,-2.018 z m 0,-3.121 2.014,0 0,2.023 -2.014,0 0,-2.023 z m 0,-3.117 2.014,0 0,2.016 -2.014,0 0,-2.016 z m 0,-3.124 2.014,0 0,2.021 -2.014,0 0,-2.021 z m 0,-3.117 2.014,0 0,2.017 -2.014,0 0,-2.017 z"
       id="path165"
       inkscape:connector-curvature="0"
       style="fill:#ffffff" /><path
       d="m 387.286,139.424 2.019,0 0,2.023 -2.019,0 0,-2.023 z m 0,-3.118 2.019,0 0,2.017 -2.019,0 0,-2.017 z m 0,-3.122 2.019,0 0,2.018 -2.019,0 0,-2.018 z m 0,-3.121 2.019,0 0,2.023 -2.019,0 0,-2.023 z m 0,-3.117 2.019,0 0,2.016 -2.019,0 0,-2.016 z m 0,-3.124 2.019,0 0,2.021 -2.019,0 0,-2.021 z m 0,-3.117 2.019,0 0,2.017 -2.019,0 0,-2.017 z m -3.122,3.117 2.019,0 0,2.021 -2.019,0 0,-2.021 z m -3.117,6.241 2.017,0 0,2.023 -2.017,0 0,-2.023 z m 0,-3.117 2.017,0 0,2.016 -2.017,0 0,-2.016 z m -3.122,-3.124 2.019,0 0,2.021 -2.019,0 0,-2.021 z m -3.122,15.602 2.019,0 0,2.023 -2.019,0 0,-2.023 z m 0,-3.118 2.019,0 0,2.017 -2.019,0 0,-2.017 z m 0,-3.122 2.019,0 0,2.018 -2.019,0 0,-2.018 z m 0,-3.121 2.019,0 0,2.023 -2.019,0 0,-2.023 z m 0,-3.117 2.019,0 0,2.016 -2.019,0 0,-2.016 z m 0,-3.124 2.019,0 0,2.021 -2.019,0 0,-2.021 z m 0,-3.117 2.019,0 0,2.017 -2.019,0 0,-2.017 z"
       id="path167"
       inkscape:connector-curvature="0"
       style="fill:#ffffff" /><path
       d="m 408.304,139.424 2.021,0 0,2.023 -2.021,0 0,-2.023 z m 0,-18.719 2.021,0 0,2.017 -2.021,0 0,-2.017 z m -3.119,18.719 2.019,0 0,2.023 -2.019,0 0,-2.023 z m 0,-9.361 2.019,0 0,2.023 -2.019,0 0,-2.023 z m 0,-9.358 2.019,0 0,2.017 -2.019,0 0,-2.017 z m -3.122,18.719 2.021,0 0,2.023 -2.021,0 0,-2.023 z m 0,-9.361 2.021,0 0,2.023 -2.021,0 0,-2.023 z m 0,-9.358 2.021,0 0,2.017 -2.021,0 0,-2.017 z m -3.119,18.719 2.016,0 0,2.023 -2.016,0 0,-2.023 z m 0,-9.361 2.016,0 0,2.023 -2.016,0 0,-2.023 z m 0,-9.358 2.016,0 0,2.017 -2.016,0 0,-2.017 z m -3.125,18.719 2.022,0 0,2.023 -2.022,0 0,-2.023 z m 0,-3.118 2.022,0 0,2.017 -2.022,0 0,-2.017 z m 0,-3.122 2.022,0 0,2.018 -2.022,0 0,-2.018 z m 0,-3.121 2.022,0 0,2.023 -2.022,0 0,-2.023 z m 0,-3.117 2.022,0 0,2.016 -2.022,0 0,-2.016 z m 0,-3.124 2.022,0 0,2.021 -2.022,0 0,-2.021 z m 0,-3.117 2.022,0 0,2.017 -2.022,0 0,-2.017 z"
       id="path169"
       inkscape:connector-curvature="0"
       style="fill:#ffffff" /><path
       d="m 427.945,133.184 2.019,0 0,2.018 -2.019,0 0,-2.018 z m 0,-3.121 2.019,0 0,2.023 -2.019,0 0,-2.023 z m 0,-3.117 2.019,0 0,2.016 -2.019,0 0,-2.016 z m -3.122,9.36 2.019,0 0,2.017 -2.019,0 0,-2.017 z m 0,-12.484 2.019,0 0,2.021 -2.019,0 0,-2.021 z m -3.119,15.602 2.021,0 0,2.023 -2.021,0 0,-2.023 z m 0,-18.719 2.021,0 0,2.017 -2.021,0 0,-2.017 z m -3.121,18.719 2.019,0 0,2.023 -2.019,0 0,-2.023 z m 0,-18.719 2.019,0 0,2.017 -2.019,0 0,-2.017 z m -3.122,18.719 2.017,0 0,2.023 -2.017,0 0,-2.023 z m 0,-3.118 2.017,0 0,2.017 -2.017,0 0,-2.017 z m 0,-3.122 2.017,0 0,2.018 -2.017,0 0,-2.018 z m 0,-3.121 2.017,0 0,2.023 -2.017,0 0,-2.023 z m 0,-3.117 2.017,0 0,2.016 -2.017,0 0,-2.016 z m 0,-3.124 2.017,0 0,2.021 -2.017,0 0,-2.021 z m 0,-3.117 2.017,0 0,2.017 -2.017,0 0,-2.017 z"
       id="path171"
       inkscape:connector-curvature="0"
       style="fill:#ffffff" /><path
       d="m 440.18,139.424 2.021,0 0,2.023 -2.021,0 0,-2.023 z m 0,-18.719 2.021,0 0,2.017 -2.021,0 0,-2.017 z m -3.12,18.719 2.021,0 0,2.023 -2.021,0 0,-2.023 z m 0,-3.118 2.021,0 0,2.017 -2.021,0 0,-2.017 z m 0,-3.122 2.021,0 0,2.018 -2.021,0 0,-2.018 z m 0,-3.121 2.021,0 0,2.023 -2.021,0 0,-2.023 z m 0,-3.117 2.021,0 0,2.016 -2.021,0 0,-2.016 z m 0,-3.124 2.021,0 0,2.021 -2.021,0 0,-2.021 z m 0,-3.117 2.021,0 0,2.017 -2.021,0 0,-2.017 z m -3.119,18.719 2.019,0 0,2.023 -2.019,0 0,-2.023 z m 0,-18.719 2.019,0 0,2.017 -2.019,0 0,-2.017 z"
       id="path173"
       inkscape:connector-curvature="0"
       style="fill:#ffffff" /><path
       d="m 460.497,139.424 2.016,0 0,2.023 -2.016,0 0,-2.023 z m 0,-3.118 2.016,0 0,2.017 -2.016,0 0,-2.017 z m 0,-3.122 2.016,0 0,2.018 -2.016,0 0,-2.018 z m 0,-3.121 2.016,0 0,2.023 -2.016,0 0,-2.023 z m 0,-3.117 2.016,0 0,2.016 -2.016,0 0,-2.016 z m 0,-3.124 2.016,0 0,2.021 -2.016,0 0,-2.021 z m -3.125,9.362 2.021,0 0,2.018 -2.021,0 0,-2.018 z m 0,-12.479 2.021,0 0,2.017 -2.021,0 0,-2.017 z m -3.119,12.479 2.024,0 0,2.018 -2.024,0 0,-2.018 z m 0,-12.479 2.024,0 0,2.017 -2.024,0 0,-2.017 z m -3.117,12.479 2.016,0 0,2.018 -2.016,0 0,-2.018 z m 0,-12.479 2.016,0 0,2.017 -2.016,0 0,-2.017 z m -3.122,18.719 2.021,0 0,2.023 -2.021,0 0,-2.023 z m 0,-3.118 2.021,0 0,2.017 -2.021,0 0,-2.017 z m 0,-3.122 2.021,0 0,2.018 -2.021,0 0,-2.018 z m 0,-3.121 2.021,0 0,2.023 -2.021,0 0,-2.023 z m 0,-3.117 2.021,0 0,2.016 -2.021,0 0,-2.016 z m 0,-3.124 2.021,0 0,2.021 -2.021,0 0,-2.021 z"
       id="path175"
       inkscape:connector-curvature="0"
       style="fill:#ffffff" /><g
       id="g177"><defs
         id="defs179"><rect
           id="SVGID_17_"
           x="269"
           y="111.151"
           width="466.37399"
           height="39.848999" /></defs><clipPath
         id="SVGID_18_"><use
           xlink:href="#SVGID_17_"
           overflow="visible"
           id="use183"
           style="overflow:visible"
           x="0"
           y="0"
           width="100%"
           height="100%" /></clipPath><path
         clip-path="url(#SVGID_18_)"
         d="m 713.88,141.454 6.604,0 0,-15.669 5.242,0 0,-5.04 -17.06,0 0,5.04 5.213,0 0,15.669 z m -14.568,0.377 c 5.561,0 8.572,-3.186 8.572,-7.039 0,-4.604 -2.925,-5.937 -8.109,-6.487 -2.289,-0.29 -2.896,-0.754 -2.896,-1.737 0,-0.898 0.695,-1.506 2.027,-1.506 1.418,0 2.144,0.724 2.287,1.998 l 6.084,0 c -0.349,-4.519 -3.215,-6.604 -8.342,-6.604 -5.156,0 -8.283,2.781 -8.283,6.604 0,4.258 2.026,5.995 7.994,6.661 2.2,0.318 2.953,0.666 2.953,1.767 0,1.014 -0.753,1.709 -2.287,1.709 -2.145,0 -2.781,-1.071 -2.897,-2.375 l -6.228,0 c 0.146,4.662 3.274,7.009 9.125,7.009 m -22.708,-8.284 2.086,-7.502 2.027,7.502 -4.113,0 z m -8.254,7.907 6.111,0 0.956,-3.447 6.487,0 0.985,3.447 6.951,0 -6.487,-20.709 -8.486,0 -6.517,20.709 z m -10.137,0.377 c 5.475,0 9.471,-2.868 9.818,-8.312 l -6.545,0 c -0.232,2.085 -1.564,3.041 -3.418,3.041 -2.549,0 -3.939,-1.911 -3.939,-5.358 l 0,-0.232 c 0,-3.504 1.448,-5.357 3.823,-5.357 1.825,0 2.839,1.071 3.04,2.982 l 6.779,0 c -0.494,-5.618 -4.259,-8.168 -9.849,-8.168 -6.11,0 -10.716,4.171 -10.716,10.572 l 0,0.232 c 10e-4,6.342 3.534,10.6 11.007,10.6 m -25.111,-5.417 0,-10.629 1.071,0 c 3.187,0 4.604,1.39 4.604,5.184 l 0,0.232 c 0,3.62 -1.36,5.213 -4.575,5.213 l -1.1,0 z m -6.575,5.04 7.906,0 c 7.299,0 11.18,-3.794 11.18,-10.398 l 0,-0.202 c 0,-6.574 -3.764,-10.108 -11.18,-10.108 l -7.906,0 0,20.708 z m -13.729,-4.779 c -2.606,0 -4.257,-1.94 -4.257,-5.474 l 0,-0.232 c 0,-3.532 1.65,-5.416 4.199,-5.416 2.606,0 4.287,1.912 4.287,5.416 l 0,0.232 c 0,3.447 -1.651,5.474 -4.229,5.474 m -0.173,5.156 c 6.806,0 11.236,-4.316 11.236,-10.775 l 0,-0.231 c 0,-6.545 -4.75,-10.398 -11.121,-10.398 -6.198,0 -11.064,4.171 -11.064,10.572 l 0,0.232 c 0,6.284 4.171,10.6 10.949,10.6 m -22.678,-11.528 0,-4.663 1.39,0 c 1.709,0 2.606,0.638 2.606,2.23 l 0,0.116 c 0,1.535 -0.897,2.316 -2.635,2.316 l -1.361,0 z m -6.547,11.151 6.547,0 0,-6.749 1.998,0 c 5.358,0 8.226,-2.432 8.226,-6.748 l 0,-0.116 c 0,-4.431 -2.549,-7.096 -8.515,-7.096 l -8.256,0 0,20.709 z"
         id="path185"
         inkscape:connector-curvature="0"
         style="fill:#ff0000" /></g><rect
       x="468.03299"
       y="120.705"
       width="109.77"
       height="20.742001"
       id="rect187"
       style="fill:#ffffff" /><g
       id="g189"><defs
         id="defs191"><rect
           id="SVGID_19_"
           x="269"
           y="111.151"
           width="466.37399"
           height="39.848999" /></defs><clipPath
         id="SVGID_20_"><use
           xlink:href="#SVGID_19_"
           overflow="visible"
           id="use195"
           style="overflow:visible"
           x="0"
           y="0"
           width="100%"
           height="100%" /></clipPath><path
         clip-path="url(#SVGID_20_)"
         d="m 557.5,138.911 4.274,0 0,-8.931 3.388,8.931 1.607,0 3.45,-8.931 0,8.931 4.762,0 0,-15.132 -6.096,0 -2.603,7.344 -2.562,-7.344 -6.22,0 0,15.132 z m -9.588,0.276 c 4.233,0 6.942,-2.01 6.942,-6.561 l 0,-8.847 -4.825,0 0,8.677 c 0,1.989 -0.424,2.964 -2.117,2.964 -1.713,0 -2.138,-0.975 -2.138,-2.942 l 0,-8.698 -4.782,0 0,8.89 c 0,4.315 2.498,6.517 6.92,6.517 m -14.518,-0.276 4.847,0 0,-15.132 -4.847,0 0,15.132 z m -20.338,0 4.274,0 0,-8.931 3.387,8.931 1.609,0 3.449,-8.931 0,8.931 4.762,0 0,-15.132 -6.096,0 -2.604,7.344 -2.561,-7.344 -6.222,0 0,15.132 z m -13.122,0 11.09,0 0,-3.683 -6.307,0 0,-2.264 4.741,0 0,-3.364 -4.741,0 0,-2.138 5.969,0 0,-3.683 -10.752,0 0,15.132 z m -10.244,-8.274 0,-3.26 1.143,0 c 1.291,0 1.947,0.424 1.947,1.523 l 0,0.085 c 0,1.102 -0.635,1.651 -1.968,1.651 l -1.122,0 z m -4.782,8.274 4.783,0 0,-5.185 0.762,0 2.815,5.185 5.037,0 -3.45,-6.18 c 1.503,-0.677 2.561,-1.862 2.561,-3.958 l 0,-0.084 c 0,-3.238 -2.159,-4.91 -6.328,-4.91 l -6.18,0 0,15.132 z m -9.27,-8.147 0,-3.408 1.016,0 c 1.249,0 1.905,0.466 1.905,1.63 l 0,0.085 c 0,1.121 -0.656,1.693 -1.926,1.693 l -0.995,0 z m -4.784,8.147 4.783,0 0,-4.931 1.46,0 c 3.916,0 6.011,-1.778 6.011,-4.932 l 0,-0.084 c 0,-3.238 -1.862,-5.186 -6.222,-5.186 l -6.032,0 0,15.133 z"
         id="path197"
         inkscape:connector-curvature="0"
         style="fill:#1d1d1b" /></g></g></svg>